  <?xml version="1.0" encoding="iso-8859-1"?>
<!-- Uploaded to: SVG Repo, www.svgrepo.com, Generator: SVG Repo Mixer Tools -->
<svg fill="#000000" height="800px" width="800px" version="1.1" id="Layer_1" xmlns="http://www.w3.org/2000/svg" xmlns:xlink="http://www.w3.org/1999/xlink"
	 viewBox="0 0 502 502" xml:space="preserve">
<g>
	<g>
		<g>
			<path d="M363.05,97.025c5.54,4.119,10.913,8.592,15.969,13.296c1.926,1.792,4.37,2.679,6.809,2.679
				c2.68,0,5.354-1.071,7.324-3.188c3.762-4.043,3.534-10.371-0.51-14.133c-5.591-5.202-11.533-10.149-17.661-14.705
				c-4.433-3.295-10.697-2.374-13.991,2.06C357.695,87.466,358.617,93.73,363.05,97.025z"/>
			<path d="M88.349,215.226c-29.071,0-52.721,23.651-52.721,52.721c0,29.071,23.65,52.722,52.721,52.722
				s52.721-23.651,52.721-52.722C141.07,238.876,117.42,215.226,88.349,215.226z M88.349,300.668
				c-18.042,0-32.721-14.679-32.721-32.722c0-18.042,14.679-32.721,32.721-32.721s32.721,14.679,32.721,32.721
				C121.07,285.99,106.392,300.668,88.349,300.668z"/>
			<path d="M304.018,85.999c0-29.071-23.651-52.721-52.721-52.721c-29.071,0-52.722,23.65-52.722,52.721
				c0,29.071,23.652,52.721,52.722,52.721S304.018,115.07,304.018,85.999z M218.575,85.999c0-18.042,14.679-32.721,32.722-32.721
				c18.042,0,32.721,14.679,32.721,32.721c0,18.042-14.679,32.721-32.721,32.721C233.254,118.72,218.575,104.041,218.575,85.999z"/>
			<path d="M457.038,276.589C458.334,267.155,459,257.566,459,248c0-45.997-14.711-89.589-42.543-126.065
				c-3.351-4.391-9.626-5.234-14.016-1.884c-4.391,3.351-5.234,9.625-1.884,14.016C425.707,167.027,439,206.425,439,248
				c0,6.782-0.369,13.575-1.09,20.303c-7.699-2.268-15.835-3.507-24.259-3.507c-47.42,0-85.999,38.579-85.999,85.999
				c0,13.751,6.741,33.337,20.076,58.439C318.573,426.765,285.304,436,251,436c-49.67,0-95.989-18.927-131.28-53.443
				c4.769-6.991,9.912-14.747,15.081-22.924c26.241-41.51,39.547-72.357,39.547-91.686c0-47.42-38.579-85.999-85.999-85.999
				c-4.709,0-9.325,0.396-13.831,1.127c16.3-44.196,49.006-81.026,90.971-102.528c-0.114,1.805-0.191,3.619-0.191,5.452
				c0,19.329,13.306,50.176,39.547,91.686c19.021,30.088,37.726,54.572,38.513,55.6c1.892,2.471,4.827,3.919,7.939,3.919
				s6.047-1.449,7.939-3.92c0.787-1.027,19.492-25.511,38.513-55.599c26.242-41.51,39.547-72.357,39.547-91.686
				C337.296,38.579,298.717,0,251.297,0c-36.913,0-68.461,23.381-80.633,56.107C112.775,80.38,68.422,130.189,51.092,190.445
				C22.277,204.352,2.35,233.866,2.35,267.947c0,19.329,13.306,50.176,39.547,91.686c19.021,30.088,37.726,54.572,38.513,55.6
				c1.892,2.471,4.827,3.919,7.939,3.919s6.047-1.449,7.939-3.919c0.383-0.5,5.004-6.55,11.831-16.081
				c17.369,16.45,37.224,29.657,59.179,39.319C193.731,450.102,221.893,456,251,456c37.754,0,74.383-10.117,106.53-29.326
				c3.001,5.085,6.22,10.351,9.669,15.807c19.021,30.088,37.726,54.572,38.513,55.6c1.892,2.471,4.827,3.919,7.939,3.919
				s6.047-1.449,7.939-3.919c0.787-1.028,19.492-25.511,38.513-55.6c26.241-41.51,39.547-72.357,39.547-91.686
				C499.65,319.193,482.504,291.536,457.038,276.589z M251.297,20c36.392,0,65.999,29.607,65.999,65.999
				c0,28.12-42.186,91.813-65.999,124.476c-23.813-32.663-65.999-96.356-65.999-124.476C185.298,49.607,214.905,20,251.297,20z
				 M88.349,392.422C64.536,359.759,22.35,296.066,22.35,267.947c0-36.392,29.607-65.999,65.999-65.999
				c36.392,0,65.999,29.607,65.999,65.999C154.348,296.066,112.162,359.759,88.349,392.422z M413.651,475.271
				c-23.813-32.663-65.999-96.356-65.999-124.476c0-36.392,29.607-65.999,65.999-65.999c36.392,0,65.999,29.607,65.999,65.999
				C479.65,378.915,437.464,442.607,413.651,475.271z"/>
			<path d="M413.651,298.074c-29.071,0-52.721,23.65-52.721,52.721c0,29.071,23.65,52.721,52.721,52.721
				c29.071,0,52.721-23.65,52.721-52.721C466.372,321.724,442.722,298.074,413.651,298.074z M413.651,383.516
				c-18.042,0-32.721-14.679-32.721-32.721c0-18.042,14.679-32.721,32.721-32.721c18.042,0,32.721,14.679,32.721,32.721
				C446.372,368.837,431.693,383.516,413.651,383.516z"/>
		</g>
	</g>
</g>
</svg>
